<mxfile host="app.diagrams.net" modified="2024-01-09T01:24:19.083Z" agent="Mozilla/5.0 (iPad; CPU OS 16_2 like Mac OS X) AppleWebKit/605.1.15 (KHTML, like Gecko) CriOS/120.0.6099.119 Mobile/15E148 Safari/604.1" etag="_S3SNKMoAcrI2qz8HDX5" version="22.1.17" type="github">
  <diagram name="Page-1" id="xP9FxREd_PtYQBFz6iIT">
    <mxGraphModel dx="1160" dy="677" grid="1" gridSize="10" guides="1" tooltips="1" connect="1" arrows="1" fold="1" page="1" pageScale="1" pageWidth="850" pageHeight="1100" math="0" shadow="0">
      <root>
        <mxCell id="0" />
        <mxCell id="1" parent="0" />
        <mxCell id="CkaWsBwE0hyuTu-2-UZg-1" value="ÁdlfjAsdlfkjasdflkj" style="rounded=0;whiteSpace=wrap;html=1;" parent="1" vertex="1">
          <mxGeometry x="90" y="260" width="160" height="80" as="geometry" />
        </mxCell>
        <mxCell id="CkaWsBwE0hyuTu-2-UZg-2" value="" style="rounded=0;whiteSpace=wrap;html=1;" parent="1" vertex="1">
          <mxGeometry x="265" y="490" width="160" height="80" as="geometry" />
        </mxCell>
        <mxCell id="CkaWsBwE0hyuTu-2-UZg-3" value="test" style="shape=note;whiteSpace=wrap;html=1;backgroundOutline=1;fontColor=#000000;darkOpacity=0.05;fillColor=#FFF9B2;strokeColor=none;fillStyle=solid;direction=west;gradientDirection=north;gradientColor=#FFF2A1;shadow=1;size=20;pointerEvents=1;" parent="1" vertex="1">
          <mxGeometry x="330" y="140" width="140" height="160" as="geometry" />
        </mxCell>
      </root>
    </mxGraphModel>
  </diagram>
</mxfile>
